<svg xmlns="http://www.w3.org/2000/svg" width="490.41" height="681"><defs><filter id="a" x="361" y="0" width="128" height="128" filterUnits="userSpaceOnUse"><feOffset dy="3"/><feGaussianBlur stdDeviation="7" result="blur"/><feFlood flood-opacity=".161"/><feComposite operator="in" in2="blur"/><feComposite in="SourceGraphic"/></filter><filter id="b" x="361" y="171.375" width="128" height="128" filterUnits="userSpaceOnUse"><feOffset dy="3"/><feGaussianBlur stdDeviation="7" result="blur-2"/><feFlood flood-opacity=".161"/><feComposite operator="in" in2="blur-2"/><feComposite in="SourceGraphic"/></filter><filter id="c" x="0" y="181" width="449" height="160" filterUnits="userSpaceOnUse"><feOffset dy="5"/><feGaussianBlur stdDeviation="5" result="blur-3"/><feFlood flood-opacity=".161"/><feComposite operator="in" in2="blur-3"/><feComposite in="SourceGraphic"/></filter><filter id="d" x="5" y="8" width="444" height="159" filterUnits="userSpaceOnUse"><feOffset dy="5"/><feGaussianBlur stdDeviation="5" result="blur-4"/><feFlood flood-opacity=".161"/><feComposite operator="in" in2="blur-4"/><feComposite in="SourceGraphic"/></filter><filter id="e" x="361" y="340" width="128" height="128" filterUnits="userSpaceOnUse"><feOffset dy="3"/><feGaussianBlur stdDeviation="7" result="blur-5"/><feFlood flood-opacity=".161"/><feComposite operator="in" in2="blur-5"/><feComposite in="SourceGraphic"/></filter><filter id="f" x="361" y="511.375" width="128" height="128" filterUnits="userSpaceOnUse"><feOffset dy="3"/><feGaussianBlur stdDeviation="7" result="blur-6"/><feFlood flood-opacity=".161"/><feComposite operator="in" in2="blur-6"/><feComposite in="SourceGraphic"/></filter><filter id="g" x="0" y="521" width="449" height="160" filterUnits="userSpaceOnUse"><feOffset dy="5"/><feGaussianBlur stdDeviation="5" result="blur-7"/><feFlood flood-opacity=".161"/><feComposite operator="in" in2="blur-7"/><feComposite in="SourceGraphic"/></filter><filter id="h" x="5" y="348" width="444" height="159" filterUnits="userSpaceOnUse"><feOffset dy="5"/><feGaussianBlur stdDeviation="5" result="blur-8"/><feFlood flood-opacity=".161"/><feComposite operator="in" in2="blur-8"/><feComposite in="SourceGraphic"/></filter></defs><g data-name="Group 3"><g data-name="Group 1"><g filter="url(#a)"><circle data-name="Ellipse 2" cx="43" cy="43" r="43" transform="translate(382 18)" fill="#e1cae6"/></g><g filter="url(#b)"><circle data-name="Ellipse 3" cx="43" cy="43" r="43" transform="translate(382 189.38)" fill="#e1cae6"/></g><path data-name="Icon awesome-check" d="M435.949 71.542l-26.8-26.8a4.124 4.124 0 010-5.832l5.828-5.837a4.123 4.123 0 015.832 0l18.056 18.059 38.673-38.674a4.124 4.124 0 015.832 0l5.831 5.832a4.124 4.124 0 010 5.832l-47.42 47.421a4.124 4.124 0 01-5.832-.001zM435.95 242.917l-26.8-26.8a4.124 4.124 0 010-5.832l5.828-5.837a4.123 4.123 0 015.832 0l18.056 18.059 38.673-38.674a4.124 4.124 0 015.832 0l5.831 5.832a4.124 4.124 0 010 5.832l-47.42 47.421a4.124 4.124 0 01-5.832-.001z" fill="#fff"/><g filter="url(#c)"><rect data-name="Rectangle 7" width="419" height="130" rx="65" transform="translate(15 191)" fill="#fff"/></g><g filter="url(#d)"><rect data-name="Rectangle 8" width="414" height="129" rx="64.5" transform="translate(20 18)" fill="#fff"/></g><text data-name="“they really don’t suck!” -Verified Customer" transform="translate(37.5 249)" fill="#7b7b7b" font-size="22" font-family="monument-extended"><tspan x="0" y="0">“they really don’t suck!”</tspan><tspan fill="#b7b7b7"><tspan x="0" y="27">-Verified Customer</tspan></tspan></text><text data-name="“their graphics cured my cancer.” -Verified Customer" transform="translate(39.5 64)" fill="#7b7b7b" font-size="21" font-family="monument-extended, "><tspan x="0" y="0">“their graphics cured my</tspan><tspan x="0" y="25">cancer.”</tspan><tspan fill="#b7b7b7"><tspan x="0" y="50">-Verified Customer</tspan></tspan></text></g><g data-name="Group 2"><g filter="url(#e)"><circle data-name="Ellipse 2" cx="43" cy="43" r="43" transform="translate(382 358)" fill="#e1cae6"/></g><g filter="url(#f)"><circle data-name="Ellipse 3" cx="43" cy="43" r="43" transform="translate(382 529.38)" fill="#e1cae6"/></g><path data-name="Icon awesome-check" d="M435.949 411.542l-26.8-26.8a4.124 4.124 0 010-5.832l5.828-5.837a4.123 4.123 0 015.832 0l18.056 18.059 38.673-38.674a4.124 4.124 0 015.832 0l5.831 5.832a4.124 4.124 0 010 5.832l-47.42 47.421a4.124 4.124 0 01-5.832-.001zM435.95 582.917l-26.8-26.8a4.124 4.124 0 010-5.832l5.828-5.837a4.123 4.123 0 015.832 0l18.056 18.059 38.673-38.674a4.124 4.124 0 015.832 0l5.831 5.832a4.124 4.124 0 010 5.832l-47.42 47.421a4.124 4.124 0 01-5.832-.001z" fill="#fff"/><g filter="url(#g)"><path data-name="Path 4" d="M80 531h289a65 65 0 010 130H80a65 65 0 010-130z" fill="#fff"/></g><g filter="url(#h)"><rect data-name="Rectangle 8" width="414" height="129" rx="64.5" transform="translate(20 358)" fill="#fff"/></g><text data-name="“they smell good too.” -Verified Customer" transform="translate(42 589)" fill="#7b7b7b" font-size="22" font-family="monument-extended "><tspan x="0" y="0">“they smell good too.”</tspan><tspan fill="#b7b7b7"><tspan x="0" y="27">-Verified Customer</tspan></tspan></text><text data-name="“my kid wants to be like them.” -Verified Customer" transform="translate(55.5 404)" fill="#7b7b7b" font-size="21" font-family="monument-extended"><tspan x="0" y="0">“my kid wants to be</tspan><tspan x="0" y="25">like them.”</tspan><tspan fill="#b7b7b7"><tspan x="0" y="50">-Verified Customer</tspan></tspan></text></g></g></svg>